<svg width="65" height="34" viewBox="0 0 65 34" fill="none" xmlns="http://www.w3.org/2000/svg">
<path d="M61.1491 1C61.2969 1.06942 61.4066 1.19104 61.5171 1.31357C61.564 1.36556 61.6111 1.41772 61.6613 1.46611C61.8049 1.59221 61.9293 1.73972 62.0536 1.88718C62.166 2.02053 62.2784 2.15384 62.405 2.27122C62.622 2.48032 62.7873 2.7261 62.9529 2.97236C63.039 3.10039 63.1253 3.22856 63.2188 3.35176C63.6959 4.07918 64.1169 4.85604 64.3344 5.70352C64.5589 6.28263 64.5939 6.91118 64.5799 7.53267C64.5939 8.09765 64.4396 8.65558 64.187 9.16407C63.752 9.93386 62.9663 10.4494 62.1454 10.7248C61.121 10.972 59.9915 11.0144 59.0023 10.5765C58.9051 10.5229 58.8044 10.4739 58.7034 10.4248C58.4323 10.2929 58.1595 10.1603 57.9499 9.93386C57.2834 9.383 56.8975 8.48608 57.0238 7.61741C57.2202 6.07076 58.1393 4.74304 59.1215 3.59894C59.1713 3.69137 59.1709 3.79219 59.1706 3.8934C59.1703 3.9778 59.17 4.06246 59.1987 4.14274C59.2829 4.51705 59.4162 4.91254 59.6968 5.18091C59.746 5.13543 59.7956 5.08996 59.8454 5.04434L59.8476 5.04232C60.145 4.76982 60.4483 4.49191 60.7002 4.17805C60.9668 3.78256 61.1842 3.3447 61.2754 2.87858C61.2777 2.81466 61.2804 2.75041 61.283 2.68594L61.2831 2.68484C61.3054 2.15132 61.3283 1.60263 61.1281 1.09887L61.1491 1Z" fill="#DF4723" stroke="#DF4723" stroke-width="0.5"/>
<path d="M14.2263 1.31357C14.1157 1.19104 14.006 1.06942 13.8583 1L13.8372 1.09887C14.0374 1.60264 14.0145 2.15132 13.9922 2.68484L13.9922 2.68594C13.9895 2.75041 13.9868 2.81466 13.9845 2.87858C13.8933 3.3447 13.6759 3.78256 13.4093 4.17805C13.1575 4.49191 12.8542 4.76982 12.5568 5.04232L12.5546 5.04434C12.5048 5.08996 12.4552 5.13543 12.406 5.18091C12.1253 4.91254 11.992 4.51705 11.9079 4.14274C11.8791 4.06246 11.8794 3.9778 11.8797 3.8934C11.8801 3.79219 11.8804 3.69137 11.8307 3.59894C10.8485 4.74304 9.92939 6.07076 9.73295 7.61741C9.60667 8.48608 9.99254 9.383 10.659 9.93386C10.8686 10.1603 11.1415 10.2929 11.4125 10.4248C11.5135 10.4739 11.6143 10.5229 11.7114 10.5765C12.7006 11.0144 13.8302 10.972 14.8545 10.7248C15.6754 10.4494 16.4612 9.93386 16.8961 9.16407C17.1487 8.65558 17.3031 8.09765 17.2891 7.53267C17.3031 6.91118 17.268 6.28263 17.0435 5.70352C16.826 4.85604 16.4051 4.07918 15.928 3.35176C15.8344 3.22856 15.7482 3.10039 15.6621 2.97236C15.4964 2.7261 15.3311 2.48032 15.1142 2.27122C14.9876 2.15384 14.8752 2.02053 14.7628 1.88718C14.6384 1.73972 14.5141 1.59221 14.3704 1.46611C14.3202 1.41772 14.2732 1.36556 14.2263 1.31357Z" fill="#DF4723"/>
<path d="M60.6372 13.0092C59.7607 13.0121 58.8841 13.015 58.0075 13C58.004 15.7231 58.004 18.4462 58.004 21.1684V21.1773C58.004 23.9025 58.004 26.6268 58.0005 29.3493C58.006 29.7637 58.004 30.1792 58.002 30.5949C57.9989 31.249 57.9958 31.9036 58.0216 32.5556H62.8765C62.9747 32.5768 62.9747 32.4497 62.9747 32.3861C62.97 28.0844 62.9716 23.7827 62.9732 19.4789V19.4756C62.9739 17.3224 62.9747 15.1687 62.9747 13.0141C62.1955 13.0042 61.4164 13.0067 60.6372 13.0092Z" fill="#DF4723"/>
<path d="M3.11867 8.05787C2.41365 8.0596 1.70882 8.06133 1.00527 8.05528C0.998255 13.5286 0.998255 19.009 1.0052 24.4823C1.00921 24.5952 1.00864 24.7093 1.00808 24.8237C1.00666 25.11 1.00524 25.3983 1.07536 25.6758C1.08618 25.7492 1.08661 25.8247 1.08704 25.8998C1.08772 26.0199 1.08839 26.1392 1.13156 26.2479C1.39114 27.8581 2.02958 29.4824 3.21525 30.6335C4.02207 31.4881 5.10251 32.053 6.23206 32.3214C6.48721 32.4365 6.75886 32.4628 7.02976 32.489C7.19094 32.5046 7.35192 32.5202 7.50894 32.5545C7.98138 32.5874 8.45376 32.5764 8.92615 32.5655C9.16234 32.56 9.39853 32.5545 9.63473 32.5545L9.64697 32.482C9.67204 32.335 9.69787 32.1834 9.69787 32.0319C9.69086 30.7678 9.69086 29.4965 9.69787 28.2253C9.69787 28.1335 9.68377 28.0488 9.65578 27.964C9.15758 27.9993 8.66648 27.957 8.17537 27.8793C7.63515 27.7593 7.13008 27.4839 6.73713 27.0884C6.47059 26.7564 6.23907 26.375 6.14787 25.9513C6.13284 25.8859 6.10803 25.8231 6.08327 25.7605C6.03853 25.6475 5.99396 25.5348 6.00755 25.4075C6.01457 25.1885 5.9865 24.9766 5.94441 24.7648C5.93388 23.5465 5.93564 22.33 5.93739 21.1136C5.93915 19.8971 5.9409 18.6805 5.93038 17.4623C6.43256 17.4593 6.93346 17.4602 7.43417 17.461C8.10167 17.4622 8.76883 17.4633 9.43829 17.4553C9.44977 16.7158 9.44872 15.9785 9.44768 15.241C9.44681 14.6263 9.44594 14.0108 9.45232 13.3944C9.45232 13.2673 9.4453 13.1402 9.43127 13.013C9.09611 13.013 8.76153 13.0142 8.42736 13.0154C7.59335 13.0182 6.7619 13.0211 5.93038 13.006C5.94542 11.8296 5.94258 10.6532 5.93973 9.47683C5.9386 9.00769 5.93746 8.53855 5.93746 8.0694C4.9993 8.05326 4.05876 8.05557 3.11867 8.05787Z" fill="#DF4723"/>
<path d="M25.4491 12.5834C25.2881 12.5871 25.1268 12.5907 24.9713 12.6317C23.7085 12.8082 22.4737 13.2532 21.4283 13.9876C20.9023 14.2832 20.4695 14.7261 20.0521 15.1533L20.018 15.1882C19.4708 15.732 19.0498 16.3888 18.699 17.0738C18.3412 17.8577 18.0185 18.677 17.8922 19.5386C17.8597 19.6435 17.8558 19.7544 17.8519 19.8665C17.8475 19.996 17.8429 20.127 17.7941 20.2519C17.7695 20.5782 17.769 20.9045 17.7685 21.2308C17.7683 21.3706 17.7681 21.5104 17.766 21.6503C17.772 23.209 17.7703 24.7696 17.7686 26.3298C17.7663 28.41 17.764 30.4905 17.78 32.5687C18.6832 32.5571 19.5863 32.5582 20.4894 32.5592C21.242 32.5601 21.9946 32.561 22.7472 32.5545C22.7519 30.0401 22.7503 27.5217 22.7488 25.0052V24.9989C22.748 23.7436 22.7472 22.4878 22.7472 21.2336C22.7332 20.3861 22.9156 19.4821 23.4699 18.8183C23.8065 18.3451 24.2836 18.0061 24.7958 17.7589C25.4974 17.4694 26.2622 17.4058 27.0128 17.4553C27.1417 17.5019 27.2781 17.5067 27.4165 17.5116C27.4665 17.5133 27.5168 17.5151 27.5671 17.5188L27.5987 17.5275C27.9466 17.6236 28.306 17.7228 28.6124 17.9284C28.6934 18.0044 28.7823 18.0725 28.8714 18.1408C29.006 18.244 29.1411 18.3476 29.2509 18.4793C29.5596 18.8465 29.7841 19.2773 29.9595 19.7293C30.0577 20.1743 30.1419 20.6262 30.1349 21.0924C30.1349 22.3584 30.1341 23.6251 30.1333 24.8924C30.1318 27.4286 30.1302 29.9669 30.1349 32.5051C30.1489 32.5192 30.184 32.5475 30.198 32.5545C30.8108 32.5572 31.4245 32.5569 32.0377 32.5565C33.0599 32.556 34.0831 32.5554 35.1091 32.5687C35.1171 31.015 35.116 29.4614 35.1148 27.9078C35.114 26.7424 35.1131 25.577 35.1161 24.4117C35.1138 23.9577 35.1146 23.5019 35.1153 23.0469C35.1169 22.1361 35.1185 21.2242 35.0951 20.3155C35.0178 19.7011 34.9337 19.0796 34.7723 18.4793C34.5128 17.6601 34.211 16.8479 33.755 16.1205C33.6604 15.952 33.5376 15.8082 33.4148 15.6645C33.3007 15.5311 33.1868 15.3978 33.0956 15.2447C32.0221 14.0159 30.5418 13.1755 28.9773 12.7941C28.8753 12.7736 28.7735 12.7505 28.672 12.7275C28.3548 12.6556 28.0386 12.584 27.7144 12.5893C27.5283 12.5828 27.3422 12.5692 27.1558 12.5555C26.7311 12.5242 26.3054 12.4929 25.8763 12.5469C25.7371 12.5769 25.5932 12.5802 25.4491 12.5834Z" fill="#DF4723"/>
<path d="M13.6746 13.0152C12.798 13.0181 11.9215 13.0209 11.0449 13.006C11.0414 15.732 11.0414 18.4581 11.0414 21.1833C11.0414 23.9085 11.0414 26.6328 11.0379 29.3553C11.0433 29.7696 11.0414 30.1851 11.0394 30.6007C11.0363 31.2547 11.0332 31.9096 11.059 32.5616H15.9139C16.0121 32.5828 16.0121 32.4557 16.0121 32.3921C16.0074 28.0898 16.009 23.7875 16.0105 19.4832V19.4816C16.0113 17.3284 16.0121 15.1746 16.0121 13.0201C15.2329 13.0101 14.4538 13.0127 13.6746 13.0152Z" fill="#DF4723"/>
<path fill-rule="evenodd" clip-rule="evenodd" d="M53.1157 4.37003C53.9937 4.36888 54.8717 4.36773 55.7496 4.3758V22.4977C55.7463 22.6482 55.7465 22.7995 55.7467 22.9503C55.7474 23.4363 55.748 23.9216 55.6303 24.3904C55.539 25.0896 55.4198 25.7958 55.1532 26.4597C55.0427 26.8377 54.8669 27.1855 54.691 27.5332C54.6435 27.6271 54.596 27.7211 54.5498 27.8156C54.0447 28.8186 53.3641 29.7367 52.5222 30.4711C51.8557 31.0785 51.112 31.6152 50.2912 31.9966C49.9045 32.2233 49.4765 32.3606 49.0507 32.4973C48.8664 32.5564 48.6822 32.6155 48.5022 32.6816C48.3262 32.7061 48.1533 32.7485 47.9804 32.791C47.7052 32.8585 47.4298 32.9261 47.1412 32.9217C47.085 32.925 47.0304 32.9378 46.9766 32.9503C46.9162 32.9644 46.8568 32.9782 46.7974 32.9782C46.1169 32.9994 45.4293 32.9994 44.7488 32.9782C44.6745 32.9853 44.6055 32.9637 44.5374 32.9423C44.4705 32.9213 44.4044 32.9006 44.3349 32.9076C44.1833 32.9157 44.0385 32.878 43.8928 32.8402C43.7822 32.8115 43.6711 32.7826 43.5561 32.7735C43.3715 32.7693 43.1966 32.7073 43.0214 32.6452C42.8969 32.601 42.7723 32.5568 42.644 32.5334L42.6357 32.5301C41.7964 32.2064 40.9368 31.8747 40.2095 31.3186C39.6738 31.0245 39.2382 30.5865 38.8116 30.1574L38.81 30.1559L38.8085 30.1544C38.7446 30.0901 38.6809 30.026 38.617 29.9627C38.3346 29.6966 38.0984 29.3888 37.8645 29.0842C37.8254 29.0331 37.7863 28.9822 37.747 28.9316C37.6899 28.8375 37.632 28.7433 37.574 28.649L37.5729 28.6473C37.2394 28.1052 36.9016 27.5562 36.6806 26.9612C36.372 26.2337 36.1475 25.471 36.0212 24.6942C36.0169 24.5456 35.9857 24.4025 35.9543 24.2581C35.9348 24.1691 35.9153 24.0795 35.902 23.9879C35.8994 23.8223 35.8955 23.6555 35.8916 23.4891L35.8916 23.4881C35.8738 22.733 35.8559 21.9727 35.9651 21.2265C36.0338 20.6455 36.1901 20.0848 36.3481 19.5179L36.3581 19.4821C36.7088 18.564 37.0737 17.6318 37.6419 16.8196C38.126 16.0004 38.8136 15.3224 39.5011 14.6727C40.7359 13.6345 42.2373 12.8789 43.8439 12.6529C43.9127 12.6466 43.9759 12.629 44.0436 12.6103L44.0684 12.6034C44.7201 12.5652 45.3719 12.5787 46.0184 12.5921L46.2293 12.5964C46.8607 12.7094 47.4851 12.8294 48.0814 13.0625C48.9655 13.3662 49.7582 13.8888 50.4668 14.5032C50.5019 14.5291 50.5331 14.5613 50.5642 14.5934C50.6266 14.6578 50.689 14.7221 50.7825 14.7363C50.8162 14.6587 50.8135 14.5779 50.8108 14.496C50.8096 14.4585 50.8083 14.4208 50.8106 14.3831C50.8075 12.9579 50.8084 11.531 50.8092 10.1043C50.8104 8.20838 50.8115 6.31213 50.8035 4.41817C50.8654 4.36065 50.9467 4.36495 51.0277 4.36923C51.066 4.37125 51.1042 4.37327 51.1403 4.36874C51.7988 4.37176 52.4573 4.3709 53.1157 4.37003ZM50.109 25.6334C50.4387 24.9625 50.7194 24.2493 50.7615 23.5006C50.9438 21.9963 50.5299 20.4356 49.632 19.221C49.5232 19.1185 49.4284 19.0037 49.3337 18.8889C49.239 18.7742 49.1443 18.6595 49.0356 18.5571C48.4463 17.9921 47.6956 17.6108 46.9379 17.3353L46.8808 17.3248C46.3227 17.2218 45.74 17.1142 45.1769 17.2577C44.9901 17.2577 44.8122 17.3172 44.6355 17.3764C44.5401 17.4083 44.445 17.4401 44.349 17.4624C43.6194 17.7661 42.8968 18.1545 42.3706 18.7619C42.3087 18.8419 42.2418 18.9186 42.175 18.9952C42.0298 19.1617 41.8843 19.3286 41.7882 19.5317C41.6161 19.7505 41.5025 20.0017 41.3888 20.2531C41.3264 20.391 41.264 20.529 41.1919 20.6616C41.1457 20.7895 41.1101 20.9217 41.0746 21.0534C41.0454 21.1617 41.0163 21.2698 40.9814 21.3749C40.8211 22.0461 40.8425 22.7527 40.8634 23.446L40.8672 23.5747L40.8692 23.6419C40.8978 23.752 40.9139 23.8652 40.9299 23.9782C40.9572 24.1697 40.9844 24.3612 41.0726 24.5389C41.1989 25.0756 41.4725 25.5629 41.7461 26.0361C42.09 26.5234 42.4688 26.9965 42.9599 27.3426C43.1463 27.5353 43.3833 27.6515 43.6191 27.7671C43.7116 27.8125 43.804 27.8578 43.893 27.9076C44.0296 27.9802 44.1743 28.028 44.3185 28.0755C44.4409 28.1159 44.5628 28.1561 44.6787 28.2113C45.1759 28.3543 45.6986 28.3364 46.2121 28.3188C46.3068 28.3156 46.4019 28.3123 46.4958 28.3101C46.6853 28.2395 46.8817 28.2324 47.0782 28.2324C47.1503 28.1325 47.263 28.0998 47.3773 28.0666C47.4407 28.0482 47.5046 28.0296 47.5622 27.9993C48.6216 27.4908 49.5547 26.6857 50.109 25.6334Z" fill="#DF4723"/>
<path d="M14.2263 1.31357C14.1157 1.19104 14.006 1.06942 13.8583 1L13.8372 1.09887C14.0374 1.60264 14.0145 2.15132 13.9922 2.68484L13.9922 2.68594C13.9895 2.75041 13.9868 2.81466 13.9845 2.87858C13.8933 3.3447 13.6759 3.78256 13.4093 4.17805C13.1575 4.49191 12.8542 4.76982 12.5568 5.04232L12.5546 5.04434C12.5048 5.08996 12.4552 5.13543 12.406 5.18091C12.1253 4.91254 11.992 4.51705 11.9079 4.14274C11.8791 4.06246 11.8794 3.9778 11.8797 3.8934C11.8801 3.79219 11.8804 3.69137 11.8307 3.59894C10.8485 4.74304 9.92939 6.07076 9.73295 7.61741C9.60667 8.48608 9.99254 9.383 10.659 9.93386C10.8686 10.1603 11.1415 10.2929 11.4125 10.4248C11.5135 10.4739 11.6143 10.5229 11.7114 10.5765C12.7006 11.0144 13.8302 10.972 14.8545 10.7248C15.6754 10.4494 16.4612 9.93386 16.8961 9.16407C17.1487 8.65558 17.3031 8.09765 17.2891 7.53267C17.3031 6.91118 17.268 6.28263 17.0435 5.70352C16.826 4.85604 16.4051 4.07918 15.928 3.35176C15.8344 3.22856 15.7482 3.10039 15.6621 2.97236C15.4964 2.7261 15.3311 2.48032 15.1142 2.27122C14.9876 2.15384 14.8752 2.02053 14.7628 1.88718C14.6384 1.73972 14.5141 1.59221 14.3704 1.46611C14.3202 1.41772 14.2732 1.36556 14.2263 1.31357Z" stroke="#DF4723" stroke-width="0.5"/>
<path d="M60.6372 13.0092C59.7607 13.0121 58.8841 13.015 58.0075 13C58.004 15.7231 58.004 18.4462 58.004 21.1684V21.1773C58.004 23.9025 58.004 26.6268 58.0005 29.3493C58.006 29.7637 58.004 30.1792 58.002 30.5949C57.9989 31.249 57.9958 31.9036 58.0216 32.5556H62.8765C62.9747 32.5768 62.9747 32.4497 62.9747 32.3861C62.97 28.0844 62.9716 23.7827 62.9732 19.4789V19.4756C62.9739 17.3224 62.9747 15.1687 62.9747 13.0141C62.1955 13.0042 61.4164 13.0067 60.6372 13.0092Z" stroke="#DF4723" stroke-width="0.5"/>
<path d="M3.11867 8.05787C2.41365 8.0596 1.70882 8.06133 1.00527 8.05528C0.998255 13.5286 0.998255 19.009 1.0052 24.4823C1.00921 24.5952 1.00864 24.7093 1.00808 24.8237C1.00666 25.11 1.00524 25.3983 1.07536 25.6758C1.08618 25.7492 1.08661 25.8247 1.08704 25.8998C1.08772 26.0199 1.08839 26.1392 1.13156 26.2479C1.39114 27.8581 2.02958 29.4824 3.21525 30.6335C4.02207 31.4881 5.10251 32.053 6.23206 32.3214C6.48721 32.4365 6.75886 32.4628 7.02976 32.489C7.19094 32.5046 7.35192 32.5202 7.50894 32.5545C7.98138 32.5874 8.45376 32.5764 8.92615 32.5655C9.16234 32.56 9.39853 32.5545 9.63473 32.5545L9.64697 32.482C9.67204 32.335 9.69787 32.1834 9.69787 32.0319C9.69086 30.7678 9.69086 29.4965 9.69787 28.2253C9.69787 28.1335 9.68377 28.0488 9.65578 27.964C9.15758 27.9993 8.66648 27.957 8.17537 27.8793C7.63515 27.7593 7.13008 27.4839 6.73713 27.0884C6.47059 26.7564 6.23907 26.375 6.14787 25.9513C6.13284 25.8859 6.10803 25.8231 6.08327 25.7605C6.03853 25.6475 5.99396 25.5348 6.00755 25.4075C6.01457 25.1885 5.9865 24.9766 5.94441 24.7648C5.93388 23.5465 5.93564 22.33 5.93739 21.1136C5.93915 19.8971 5.9409 18.6805 5.93038 17.4623C6.43256 17.4593 6.93346 17.4602 7.43417 17.461C8.10167 17.4622 8.76883 17.4633 9.43829 17.4553C9.44977 16.7158 9.44872 15.9785 9.44768 15.241C9.44681 14.6263 9.44594 14.0108 9.45232 13.3944C9.45232 13.2673 9.4453 13.1402 9.43127 13.013C9.09611 13.013 8.76153 13.0142 8.42736 13.0154C7.59335 13.0182 6.7619 13.0211 5.93038 13.006C5.94542 11.8296 5.94258 10.6532 5.93973 9.47683C5.9386 9.00769 5.93746 8.53855 5.93746 8.0694C4.9993 8.05326 4.05876 8.05557 3.11867 8.05787Z" stroke="#DF4723" stroke-width="0.5"/>
<path d="M25.4491 12.5834C25.2881 12.5871 25.1268 12.5907 24.9713 12.6317C23.7085 12.8082 22.4737 13.2532 21.4283 13.9876C20.9023 14.2832 20.4695 14.7261 20.0521 15.1533L20.018 15.1882C19.4708 15.732 19.0498 16.3888 18.699 17.0738C18.3412 17.8577 18.0185 18.677 17.8922 19.5386C17.8597 19.6435 17.8558 19.7544 17.8519 19.8665C17.8475 19.996 17.8429 20.127 17.7941 20.2519C17.7695 20.5782 17.769 20.9045 17.7685 21.2308C17.7683 21.3706 17.7681 21.5104 17.766 21.6503C17.772 23.209 17.7703 24.7696 17.7686 26.3298C17.7663 28.41 17.764 30.4905 17.78 32.5687C18.6832 32.5571 19.5863 32.5582 20.4894 32.5592C21.242 32.5601 21.9946 32.561 22.7472 32.5545C22.7519 30.0401 22.7503 27.5217 22.7488 25.0052V24.9989C22.748 23.7436 22.7472 22.4878 22.7472 21.2336C22.7332 20.3861 22.9156 19.4821 23.4699 18.8183C23.8065 18.3451 24.2836 18.0061 24.7958 17.7589C25.4974 17.4694 26.2622 17.4058 27.0128 17.4553C27.1417 17.5019 27.2781 17.5067 27.4165 17.5116C27.4665 17.5133 27.5168 17.5151 27.5671 17.5188L27.5987 17.5275C27.9466 17.6236 28.306 17.7228 28.6124 17.9284C28.6934 18.0044 28.7823 18.0725 28.8714 18.1408C29.006 18.244 29.1411 18.3476 29.2509 18.4793C29.5596 18.8465 29.7841 19.2773 29.9595 19.7293C30.0577 20.1743 30.1419 20.6262 30.1349 21.0924C30.1349 22.3584 30.1341 23.6251 30.1333 24.8924C30.1318 27.4286 30.1302 29.9669 30.1349 32.5051C30.1489 32.5192 30.184 32.5475 30.198 32.5545C30.8108 32.5572 31.4245 32.5569 32.0377 32.5565C33.0599 32.556 34.0831 32.5554 35.1091 32.5687C35.1171 31.015 35.116 29.4614 35.1148 27.9078C35.114 26.7424 35.1131 25.577 35.1161 24.4117C35.1138 23.9577 35.1146 23.5019 35.1153 23.0469C35.1169 22.1361 35.1185 21.2242 35.0951 20.3155C35.0178 19.7011 34.9337 19.0796 34.7723 18.4793C34.5128 17.6601 34.211 16.8479 33.755 16.1205C33.6604 15.952 33.5376 15.8082 33.4148 15.6645C33.3007 15.5311 33.1868 15.3978 33.0956 15.2447C32.0221 14.0159 30.5418 13.1755 28.9773 12.7941C28.8753 12.7736 28.7735 12.7505 28.672 12.7275C28.3548 12.6556 28.0386 12.584 27.7144 12.5893C27.5283 12.5828 27.3422 12.5692 27.1558 12.5555C26.7311 12.5242 26.3054 12.4929 25.8763 12.5469C25.7371 12.5769 25.5932 12.5802 25.4491 12.5834Z" stroke="#DF4723" stroke-width="0.5"/>
<path d="M13.6746 13.0152C12.798 13.0181 11.9215 13.0209 11.0449 13.006C11.0414 15.732 11.0414 18.4581 11.0414 21.1833C11.0414 23.9085 11.0414 26.6328 11.0379 29.3553C11.0433 29.7696 11.0414 30.1851 11.0394 30.6007C11.0363 31.2547 11.0332 31.9096 11.059 32.5616H15.9139C16.0121 32.5828 16.0121 32.4557 16.0121 32.3921C16.0074 28.0898 16.009 23.7875 16.0105 19.4832V19.4816C16.0113 17.3284 16.0121 15.1746 16.0121 13.0201C15.2329 13.0101 14.4538 13.0127 13.6746 13.0152Z" stroke="#DF4723" stroke-width="0.5"/>
<path fill-rule="evenodd" clip-rule="evenodd" d="M53.1157 4.37003C53.9937 4.36888 54.8717 4.36773 55.7496 4.3758V22.4977C55.7463 22.6482 55.7465 22.7995 55.7467 22.9503C55.7474 23.4363 55.748 23.9216 55.6303 24.3904C55.539 25.0896 55.4198 25.7958 55.1532 26.4597C55.0427 26.8377 54.8669 27.1855 54.691 27.5332C54.6435 27.6271 54.596 27.7211 54.5498 27.8156C54.0447 28.8186 53.3641 29.7367 52.5222 30.4711C51.8557 31.0785 51.112 31.6152 50.2912 31.9966C49.9045 32.2233 49.4765 32.3606 49.0507 32.4973C48.8664 32.5564 48.6822 32.6155 48.5022 32.6816C48.3262 32.7061 48.1533 32.7485 47.9804 32.791C47.7052 32.8585 47.4298 32.9261 47.1412 32.9217C47.085 32.925 47.0304 32.9378 46.9766 32.9503C46.9162 32.9644 46.8568 32.9782 46.7974 32.9782C46.1169 32.9994 45.4293 32.9994 44.7488 32.9782C44.6745 32.9853 44.6055 32.9637 44.5374 32.9423C44.4705 32.9213 44.4044 32.9006 44.3349 32.9076C44.1833 32.9157 44.0385 32.878 43.8928 32.8402C43.7822 32.8115 43.6711 32.7826 43.5561 32.7735C43.3715 32.7693 43.1966 32.7073 43.0214 32.6452C42.8969 32.601 42.7723 32.5568 42.644 32.5334L42.6357 32.5301C41.7964 32.2064 40.9368 31.8747 40.2095 31.3186C39.6738 31.0245 39.2382 30.5865 38.8116 30.1574L38.81 30.1559L38.8085 30.1544C38.7446 30.0901 38.6809 30.026 38.617 29.9627C38.3346 29.6966 38.0984 29.3888 37.8645 29.0842C37.8254 29.0331 37.7863 28.9822 37.747 28.9316C37.6899 28.8375 37.632 28.7433 37.574 28.649L37.5729 28.6473C37.2394 28.1052 36.9016 27.5562 36.6806 26.9612C36.372 26.2337 36.1475 25.471 36.0212 24.6942C36.0169 24.5456 35.9857 24.4025 35.9543 24.2581C35.9348 24.1691 35.9153 24.0795 35.902 23.9879C35.8994 23.8223 35.8955 23.6555 35.8916 23.4891L35.8916 23.4881C35.8738 22.733 35.8559 21.9727 35.9651 21.2265C36.0338 20.6455 36.1901 20.0848 36.3481 19.5179L36.3581 19.4821C36.7088 18.564 37.0737 17.6318 37.6419 16.8196C38.126 16.0004 38.8136 15.3224 39.5011 14.6727C40.7359 13.6345 42.2373 12.8789 43.8439 12.6529C43.9127 12.6466 43.9759 12.629 44.0436 12.6103L44.0684 12.6034C44.7201 12.5652 45.3719 12.5787 46.0184 12.5921L46.2293 12.5964C46.8607 12.7094 47.4851 12.8294 48.0814 13.0625C48.9655 13.3662 49.7582 13.8888 50.4668 14.5032C50.5019 14.5291 50.5331 14.5613 50.5642 14.5934C50.6266 14.6578 50.689 14.7221 50.7825 14.7363C50.8162 14.6587 50.8135 14.5779 50.8108 14.496C50.8096 14.4585 50.8083 14.4208 50.8106 14.3831C50.8075 12.9579 50.8084 11.531 50.8092 10.1043C50.8104 8.20838 50.8115 6.31213 50.8035 4.41817C50.8654 4.36065 50.9467 4.36495 51.0277 4.36923C51.066 4.37125 51.1042 4.37327 51.1403 4.36874C51.7988 4.37176 52.4573 4.3709 53.1157 4.37003ZM50.109 25.6334C50.4387 24.9625 50.7194 24.2493 50.7615 23.5006C50.9438 21.9963 50.5299 20.4356 49.632 19.221C49.5232 19.1185 49.4284 19.0037 49.3337 18.8889C49.239 18.7742 49.1443 18.6595 49.0356 18.5571C48.4463 17.9921 47.6956 17.6108 46.9379 17.3353L46.8808 17.3248C46.3227 17.2218 45.74 17.1142 45.1769 17.2577C44.9901 17.2577 44.8122 17.3172 44.6355 17.3764C44.5401 17.4083 44.445 17.4401 44.349 17.4624C43.6194 17.7661 42.8968 18.1545 42.3706 18.7619C42.3087 18.8419 42.2418 18.9186 42.175 18.9952C42.0298 19.1617 41.8843 19.3286 41.7882 19.5317C41.6161 19.7505 41.5025 20.0017 41.3888 20.2531C41.3264 20.391 41.264 20.529 41.1919 20.6616C41.1457 20.7895 41.1101 20.9217 41.0746 21.0534C41.0454 21.1617 41.0163 21.2698 40.9814 21.3749C40.8211 22.0461 40.8425 22.7527 40.8634 23.446L40.8672 23.5747L40.8692 23.6419C40.8978 23.752 40.9139 23.8652 40.9299 23.9782C40.9572 24.1697 40.9844 24.3612 41.0726 24.5389C41.1989 25.0756 41.4725 25.5629 41.7461 26.0361C42.09 26.5234 42.4688 26.9965 42.9599 27.3426C43.1463 27.5353 43.3833 27.6515 43.6191 27.7671C43.7116 27.8125 43.804 27.8578 43.893 27.9076C44.0296 27.9802 44.1743 28.028 44.3185 28.0755C44.4409 28.1159 44.5628 28.1561 44.6787 28.2113C45.1759 28.3543 45.6986 28.3364 46.2121 28.3188C46.3068 28.3156 46.4019 28.3123 46.4958 28.3101C46.6853 28.2395 46.8817 28.2324 47.0782 28.2324C47.1503 28.1325 47.263 28.0998 47.3773 28.0666C47.4407 28.0482 47.5046 28.0296 47.5622 27.9993C48.6216 27.4908 49.5547 26.6857 50.109 25.6334Z" stroke="#DF4723" stroke-width="0.5"/>
</svg>
